<svg xmlns="http://www.w3.org/2000/svg" version="1.1" xmlns:xlink="http://www.w3.org/1999/xlink" 
xmlns:svgjs="http://svgjs.dev/svgjs" width="1000" height="1125" viewBox="0 0 1000 1125"><g transform="matrix(1,0,0,1,1.7053025658242404e-13,0)">
<svg viewBox="0 0 320 360" data-background-color="#ffffff" preserveAspectRatio="xMidYMid meet" height="1125" width="1000" 
xmlns="http://www.w3.org/2000/svg" xmlns:xlink="http://www.w3.org/1999/xlink"><g id="tight-bounds" transform="matrix(1,0,0,1,0,0)">
<svg viewBox="0 0 320 360" height="360" width="320"><g><svg></svg></g><g><svg viewBox="0 0 320 360" height="360" width="320"><g
><path xmlns="http://www.w3.org/2000/svg" d="M20.961 227.22l3.726 4.658-1.863-6.056c-0.466-2.795-3.726 0.466-1.863 1.398M25.153 224.425c1.397 2.329 2.795 4.658 2.795 6.987 0 3.261 2.795 4.658 5.123 5.589-3.261-3.726-5.124-13.974-7.918-12.576M204.017 26.929c7.918 0 15.371-0.932 23.756 0.931 20.495 5.124 37.729 15.371 49.374 29.811l32.606 52.169c1.397 13.042 4.192 27.482 3.726 43.319 3.261 0 2.795-4.658 6.521-5.59-3.726 9.316-5.59 20.961-6.521 34.469-2.329-7.453 0-18.632 0.466-24.687-3.261 5.124-5.124 1.397-5.124-0.932 0.466-3.726-1.397-3.261-2.795-4.658-5.124-4.658-8.384-9.782-12.11-17.7 2.329-6.055 2.795-14.905-4.658-19.563-2.329-1.397-5.124-3.726-6.521-7.453-1.863-5.124-5.124-11.179-4.193-19.097 0.466-2.329-6.987 5.124-11.179 1.863-18.166-12.576-36.332-27.016-58.224-39.127-11.645 0-20.029-4.192-24.221-9.316-3.726-4.658-0.932-10.713 4.658-11.179 3.261 0 6.987-0.932 9.782 0.932 0.466-1.863 2.329-4.192 4.657-4.192M157.904 16.215l0.932 0.466c4.658 0.932 6.987 7.453 12.11 5.124 0 3.261 0.466 6.521-0.466 8.85-1.397 3.726-5.59 3.726-8.85 3.726-31.208-1.863-49.374 11.179-68.471 22.358-5.124 3.261-10.713 5.59-14.906 9.782-20.029 18.632-41.921 35.866-47.045 70.335l-4.192 38.195c-0.466 4.192-5.124 8.384-4.192 13.508l3.26 22.824c-3.261-3.261-5.124 0.932-4.192 2.795 0.466 1.397 2.329 6.055 5.124 1.863 3.726 6.987 7.453 20.495 12.576 26.55 15.837 18.632 36.332 35.4 53.101 52.169 4.192-0.932 7.453-0.932 8.384-3.727 1.397 2.795-1.397 5.59-3.726 6.056 7.453 4.658 15.837 8.85 27.016 9.781 14.44 0.932 27.948 3.261 40.524 6.522 6.521-1.863 13.042-2.795 20.029-3.261 2.329 0 3.726-3.726 6.521-4.658l0.466-4.658c2.795 4.192 2.329-1.397 0.466-4.192 3.261 2.795 4.192 5.124 5.589 6.987 0-1.397 3.726-6.521 3.727-0.466l0.931-6.055c1.397-0.932 1.863 5.124 3.261 0.931 1.397-4.192 4.192-0.932 6.987-2.329-0.932 1.863-0.466 5.59 2.794 3.261l3.727-3.261c2.329 5.59 6.055 3.261 7.918 2.329 20.495-13.042 40.99-28.413 60.553-43.784l-0.466 6.055 2.329-7.453c2.329 2.329 4.192 0.466 5.124-0.931 2.795-4.658 6.521-9.316 12.577-13.508-7.453 20.029-16.303 35.866-27.482 48.908l-4.658 5.59c0 3.261-0.932 7.453-4.658 7.918-1.863 0.466-5.59-0.932-8.384 1.863-1.397 1.863 3.261 5.59-0.466 2.795-3.261-2.329-6.521 0-10.248 0.932-2.795 0.932 1.863 3.726 2.795 5.589 0.932 1.863 1.863 3.726 1.398 6.056l-5.124-5.59c-6.055 3.261-9.782 9.316-14.906 13.974-2.329 1.863-1.397 5.124-1.397 7.918-3.261 0-6.987-0.932-8.85 0.932-1.397 1.863-0.932 4.658-0.932 7.453-4.658-0.466-5.124-7.453-9.315-6.056-4.192 0.932-8.85 1.397-12.577 3.727 2.795 5.59-4.658 2.329-3.726 3.26-6.987-4.192-13.042-7.453-20.495-4.658-15.837-5.124-35.4-2.795-49.84-0.931 0-2.329 0.466-4.658-0.466-5.124-0.932 2.329-3.726 1.397-3.26 1.397-8.85-6.055-17.7-9.782-27.016-14.905-8.384 0.932-16.303-3.261-18.632-5.59-6.521-6.055-13.974-2.795-20.029-4.192-13.042-3.261-17.7-16.769-19.098-26.084-0.932-4.658-4.658-6.521-6.055-6.056-6.055-19.563-15.371-37.263-22.824-55.429-1.863-4.658-1.397-9.316-1.397-14.44 2.329 0.932 4.658 0.466 4.192-2.794-2.329-15.371-7.918-27.016-13.974-38.195 3.261-15.837 3.726-34.469 11.179-48.443 6.521-12.576 18.632-19.098 27.016-29.811 2.795-3.726 2.795-8.85 5.59-12.11 9.316-9.316 18.632-19.098 28.879-27.482 4.658-3.726 10.247 0 17.234-1.397 2.329-8.384 11.645-15.837 20.495-13.508 3.726 0.932 11.179-8.85 13.508-9.782 3.726-1.397 1.863 3.726 1.863 6.987 8.85-6.987 20.961-10.713 32.14-14.906" fill="#8b3c7f" fill-rule="nonzero" stroke="none" stroke-width="1" stroke-linecap="butt" stroke-linejoin="miter" 
stroke-miterlimit="10" stroke-dasharray="" stroke-dashoffset="0" font-family="none" font-weight="none" font-size="none" text-anchor="none" style="mix-blend-mode: normal" data-fill-palette-color="tertiary"></path></g><g transform="matrix(1,0,0,1,64,95.01042654028436)"><svg viewBox="0 0 192 169.9791469194313" height="169.9791469194313" width="192"><g><svg viewBox="0 0 192 169.9791469194313" height="169.9791469194313" width="192"><g><svg viewBox="0 0 192 169.9791469194313" height="169.9791469194313" width="192"><g><svg viewBox="0 0 192 169.9791469194313" height="169.9791469194313" width="192"><g id="textblocktransform"><svg viewBox="0 0 192 169.9791469194313" height="169.9791469194313" width="192" id="textblock"><g><svg viewBox="0 0 192 169.9791469194313" height="169.9791469194313" width="192"><g transform="matrix(1,0,0,1,0,0)"><svg width="192" viewBox="2.0999999046325684 -35.5 52.75 46.70000076293945" height="169.9791469194313" data-palette-color="#8b3c7f"><path d="M12.45 0.6L12.45 0.6Q8.95 0.6 5.75-1.4L5.75-1.4Q4.15-2.4 3.13-4.2 2.1-6 2.1-8.35L2.1-8.35Q2.1-12.8 5.05-15.6 8-18.4 12.15-18.85L12.15-18.85Q9.35-19.6 7.68-21.45 6-23.3 6-26.15L6-26.15Q6-30.45 9.38-32.98 12.75-35.5 17.1-35.5 21.45-35.5 24.35-33.65 27.25-31.8 27.25-28.65L27.25-28.65Q27.25-27.55 26.88-26.5 26.5-25.45 26.1-25L26.1-25 25.75-24.5Q24.15-24.5 22.23-25.05 20.3-25.6 19.4-26.45L19.4-26.45 20-31.6Q19.25-32.35 17.48-32.35 15.7-32.35 14.68-30.53 13.65-28.7 13.65-26.35 13.65-24 14.2-22.8 14.75-21.6 15.75-20.95L15.75-20.95Q17.3-19.95 19.4-19.55L19.4-19.55 19-16.8Q15.4-16.8 12.75-14.68 10.1-12.55 10.1-9.05L10.1-9.05Q10.1-6.85 11.53-5.43 12.95-4 15.2-4L15.2-4Q19.3-4 23.6-8.15L23.6-8.15 25.6-6.3Q19.8 0.6 12.45 0.6ZM36.85 11.2L36.85 11.2Q34.35 11.2 32.7 9.98 31.05 8.75 31.05 6.6L31.05 6.6Q31.05 0.85 42.8-0.95L42.8-0.95Q43.25-2.6 43.5-4.15L43.5-4.15Q41.2-2.75 38.65-2.75L38.65-2.75Q34-2.75 31.15-6.13 28.3-9.5 28.3-14.9 28.3-20.3 30.4-24.9 32.5-29.5 36.42-32.5 40.35-35.5 44.77-35.5 49.2-35.5 52.02-33.33 54.85-31.15 54.85-27.8L54.85-27.8Q54.85-25.8 54.15-24.55L54.15-24.55Q53.75-24.5 53.05-24.5L53.05-24.5Q49.2-24.5 47.25-25.75L47.25-25.75 47.3-31.15Q46.1-32.2 44.15-32.2L44.15-32.2Q41.1-32.2 38.75-27.53 36.4-22.85 36.4-16.15L36.4-16.15Q36.4-11.7 37.85-9.6 39.3-7.5 41.3-7.5L41.3-7.5Q44.3-7.5 46.7-10.5 49.1-13.5 50.15-17.65L50.15-17.65 52.85-17.2Q50.95-2.9 47.1 4.15 43.25 11.2 36.85 11.2ZM34.3 6.45L34.3 6.45Q34.3 7.85 36.65 7.85L36.65 7.85Q37.85 7.85 39.5 6.38 41.15 4.9 42 2.55L42 2.55Q39.1 2.8 36.7 3.88 34.3 4.95 34.3 6.45Z" opacity="1" transform="matrix(1,0,0,1,0,0)" fill="#8b3c7f" class="wordmark-text-0" data-fill-palette-color="primary" id="text-0"></path></svg></g></svg></g></svg></g></svg></g><g></g></svg></g></svg></g></svg></g></svg></g><defs></defs></svg><rect width="320" height="360" fill="none" stroke="none" visibility="hidden"></rect></g></svg></g></svg>